<svg width="196" height="60" viewBox="0 0 196 60" fill="none" xmlns="http://www.w3.org/2000/svg">
<path fill-rule="evenodd" clip-rule="evenodd" d="M69.8802 47.5196H74.3017V48.2029C74.1409 48.1627 74.0002 48.1426 73.8394 48.1426H71.3875V51.4988H73.4576C73.6183 51.4988 73.759 51.4787 73.9198 51.4385V52.1621C73.7992 52.1219 73.6585 52.1219 73.4777 52.1219H71.3875V55.7997C71.3875 55.9403 71.4076 56.081 71.4478 56.2217H69.8802C69.9204 56.081 69.9405 55.9403 69.9405 55.7997V47.9215C69.9405 47.8009 69.9204 47.6603 69.8802 47.5196ZM76.1506 47.6C76.4119 47.6 76.6128 47.6603 76.7535 47.7607C76.8942 47.8612 76.9746 48.022 76.9746 48.2029C76.9746 48.4039 76.8942 48.5445 76.7535 48.6651C76.6128 48.7857 76.4119 48.8259 76.1506 48.8259C75.5879 48.8259 75.3065 48.6249 75.3065 48.2029C75.3065 48.022 75.3869 47.8612 75.5276 47.7607C75.7085 47.6603 75.9094 47.6 76.1506 47.6ZM75.4271 49.4288H76.8741C76.8339 49.5695 76.8339 49.7102 76.8339 49.8509V55.7997C76.8339 55.9403 76.854 56.081 76.8741 56.2217H75.4271C75.4673 56.1011 75.4673 55.9604 75.4673 55.7997V49.8509C75.4673 49.6901 75.4472 49.5494 75.4271 49.4288ZM78.5824 49.4288H79.949V50.3935C80.15 50.0719 80.3509 49.8509 80.572 49.6901C80.9539 49.4087 81.4563 49.2881 82.0592 49.2881C82.8229 49.2881 83.4258 49.5293 83.8077 49.9915C84.0689 50.293 84.1895 50.715 84.1895 51.2577V55.8198C84.1895 55.9604 84.2096 56.1011 84.2297 56.2418H82.7827C82.8229 56.1413 82.8229 56.0006 82.8229 55.8198V51.4586C82.8229 51.0768 82.7023 50.7753 82.4813 50.5543C82.2602 50.3332 81.9386 50.2327 81.5166 50.2327C80.9941 50.2327 80.6122 50.3734 80.3509 50.6749C80.0696 50.9763 79.949 51.3783 79.949 51.8606V55.8399C79.949 55.9805 79.9691 56.1212 79.9892 56.2619H78.5422C78.5824 56.1413 78.5824 56.0006 78.5824 55.8399V49.871C78.6427 49.7102 78.6226 49.5695 78.5824 49.4288ZM89.3143 55.3173C89.033 55.6389 88.7918 55.86 88.5707 56.0006C88.1688 56.2418 87.7066 56.3423 87.2041 56.3423C86.6816 56.3423 86.2596 56.1815 85.938 55.8801C85.5561 55.5183 85.3552 55.0159 85.3552 54.3929C85.3552 53.6493 85.6365 53.1066 86.1993 52.7248C86.4404 52.564 86.6816 52.4434 86.9027 52.363C87.1237 52.2826 87.6262 52.1219 88.3899 51.8807C88.7114 51.7802 88.9325 51.6596 89.0732 51.5189C89.2139 51.3783 89.2741 51.1773 89.2741 50.9361C89.2741 50.6548 89.1536 50.4136 88.9325 50.2327C88.7114 50.0518 88.41 49.9513 88.0281 49.9513C87.7066 49.9513 87.4252 50.0116 87.184 50.1121C86.9429 50.2126 86.6213 50.4136 86.2596 50.6949L86.0385 49.8308C86.5007 49.6097 86.9027 49.469 87.2443 49.3886C87.586 49.3082 87.9678 49.268 88.41 49.268C89.1134 49.268 89.656 49.4087 90.0378 49.67C90.4197 49.9513 90.6207 50.3332 90.6207 50.8356V54.8752C90.6207 55.257 90.7614 55.458 91.0226 55.458C91.1231 55.458 91.2839 55.3977 91.4648 55.257V56.0006C91.103 56.2217 90.7814 56.3423 90.4599 56.3423C90.1182 56.3423 89.8771 56.2619 89.7163 56.1212C89.5153 55.9604 89.3947 55.6992 89.3143 55.3173ZM89.254 52.1821C89.0933 52.2826 88.9526 52.3429 88.8722 52.3831C88.7918 52.4233 88.4502 52.5439 87.8673 52.765C87.4051 52.9458 87.0835 53.1468 86.9027 53.4081C86.7218 53.6694 86.6213 53.9507 86.6213 54.2723C86.6213 54.634 86.7218 54.9154 86.9228 55.1365C87.1237 55.3575 87.385 55.458 87.7267 55.458C88.2492 55.458 88.6511 55.2369 88.9526 54.8149C89.1335 54.5335 89.2339 54.2522 89.2339 53.9306V52.1821H89.254ZM92.3289 49.4288H93.6956V50.3935C93.8965 50.0719 94.0975 49.8509 94.3186 49.6901C94.7004 49.4087 95.2029 49.2881 95.8058 49.2881C96.5695 49.2881 97.1724 49.5293 97.5542 49.9915C97.8155 50.293 97.9361 50.715 97.9361 51.2577V55.8198C97.9361 55.9604 97.9562 56.1011 97.9763 56.2418H96.5293C96.5695 56.1413 96.5695 56.0006 96.5695 55.8198V51.4586C96.5695 51.0768 96.4489 50.7753 96.2278 50.5543C96.0067 50.3332 95.6852 50.2327 95.2631 50.2327C94.7406 50.2327 94.3588 50.3734 94.0975 50.6749C93.8161 50.9763 93.6956 51.3783 93.6956 51.8606V55.8399C93.6956 55.9805 93.7157 56.1212 93.7358 56.2619H92.2887C92.3289 56.1413 92.3289 56.0006 92.3289 55.8399V49.871C92.3892 49.7102 92.3691 49.5695 92.3289 49.4288ZM104.307 55.86C103.804 56.081 103.443 56.2016 103.222 56.2619C103.001 56.3222 102.719 56.3423 102.378 56.3423C101.413 56.3423 100.669 56.0408 100.147 55.458C99.5841 54.835 99.3027 53.9708 99.3027 52.9057C99.3027 51.6797 99.6645 50.7351 100.368 50.092C100.951 49.5494 101.714 49.2881 102.659 49.2881C103.181 49.2881 103.724 49.3886 104.307 49.5896V50.5945C103.985 50.3332 103.704 50.1523 103.483 50.0719C103.262 49.9714 103.021 49.9312 102.739 49.9312C102.116 49.9312 101.634 50.1925 101.292 50.6949C100.91 51.2376 100.73 51.941 100.73 52.8454C100.73 53.6292 100.87 54.2723 101.152 54.7948C101.473 55.3977 101.976 55.6992 102.659 55.6992C102.96 55.6992 103.222 55.6389 103.463 55.5384C103.704 55.4379 103.985 55.2369 104.287 54.9757V55.86H104.307ZM110.959 55.7796C110.517 56.0006 110.135 56.1413 109.793 56.2217C109.452 56.3021 109.07 56.3423 108.628 56.3423C107.462 56.3423 106.598 56.0006 105.995 55.3173C105.452 54.7144 105.191 53.8904 105.191 52.8454C105.191 51.6998 105.493 50.7954 106.116 50.1523C106.678 49.5494 107.422 49.268 108.367 49.268C109.271 49.268 109.974 49.5494 110.477 50.1322C110.979 50.6949 111.261 51.5189 111.301 52.5841H106.598C106.598 53.3277 106.678 53.9306 106.839 54.3728C107.161 55.257 107.824 55.6992 108.829 55.6992C109.512 55.6992 110.175 55.4379 110.778 54.9154L110.959 55.7796ZM106.618 51.9812H109.874C109.834 51.5993 109.793 51.2778 109.713 51.0366C109.593 50.6748 109.412 50.3734 109.13 50.1523C108.909 49.9714 108.628 49.871 108.306 49.871C107.844 49.871 107.462 50.0518 107.181 50.4136C106.859 50.8155 106.678 51.318 106.618 51.9812ZM117.692 52.4836V55.7997C117.692 55.9202 117.712 56.0609 117.752 56.2217H116.184C116.225 56.081 116.245 55.9403 116.245 55.7997V47.9617C116.245 47.8009 116.225 47.6603 116.184 47.5397H118.958C119.641 47.5397 120.204 47.6804 120.686 47.9416C121.41 48.3637 121.771 49.0269 121.771 49.9312C121.771 50.9361 121.329 51.6596 120.445 52.1018C119.923 52.363 119.32 52.4836 118.596 52.4836H117.692ZM117.692 51.8204H118.476C118.898 51.8204 119.239 51.74 119.5 51.5993C119.742 51.4586 119.943 51.2376 120.083 50.9361C120.224 50.6347 120.304 50.3131 120.304 49.9513C120.304 49.4087 120.144 48.9666 119.842 48.645C119.541 48.3235 119.119 48.1627 118.596 48.1627H117.692V51.8204ZM122.796 49.4288H124.163V50.293C124.284 49.9313 124.465 49.6901 124.726 49.5293C124.967 49.3886 125.349 49.2881 125.871 49.268V50.3131C125.771 50.3131 125.69 50.3131 125.67 50.3131C124.686 50.3131 124.203 50.8557 124.203 51.9209V55.8198C124.203 55.9805 124.223 56.1011 124.243 56.2418H122.796C122.837 56.1011 122.837 55.9604 122.837 55.8198V49.871C122.837 49.7102 122.817 49.5695 122.796 49.4288ZM127.66 47.6C127.921 47.6 128.122 47.6603 128.263 47.7607C128.404 47.8612 128.484 48.022 128.484 48.2029C128.484 48.4039 128.404 48.5445 128.263 48.6651C128.122 48.7857 127.921 48.8259 127.66 48.8259C127.097 48.8259 126.816 48.6249 126.816 48.2029C126.816 48.022 126.896 47.8612 127.037 47.7607C127.218 47.6603 127.419 47.6 127.66 47.6ZM126.936 49.4288H128.383C128.343 49.5695 128.343 49.7102 128.343 49.8509V55.7997C128.343 55.9403 128.363 56.081 128.383 56.2217H126.936C126.977 56.1011 126.977 55.9604 126.977 55.7997V49.8509C126.977 49.6901 126.957 49.5494 126.936 49.4288ZM132.524 54.7345L134.372 49.8107C134.433 49.67 134.453 49.5494 134.453 49.4288H135.217C135.136 49.5494 135.076 49.67 135.016 49.8107L132.765 55.86C132.704 56.0207 132.684 56.1413 132.684 56.2016C132.684 56.2016 132.684 56.2217 132.684 56.2418H131.619C131.599 56.1212 131.579 56.0006 131.539 55.86L129.328 49.8107C129.288 49.7303 129.248 49.5896 129.167 49.4288H130.715C130.715 49.5494 130.735 49.67 130.775 49.8107L132.524 54.7345ZM139.296 55.3173C139.015 55.6389 138.774 55.86 138.553 56.0006C138.151 56.2418 137.689 56.3423 137.186 56.3423C136.664 56.3423 136.242 56.1815 135.92 55.8801C135.538 55.5183 135.337 55.0159 135.337 54.3929C135.337 53.6493 135.619 53.1066 136.181 52.7248C136.422 52.564 136.664 52.4434 136.885 52.363C137.106 52.2826 137.608 52.1219 138.372 51.8807C138.693 51.7802 138.914 51.6596 139.055 51.5189C139.196 51.3783 139.256 51.1773 139.256 50.9361C139.256 50.6548 139.136 50.4136 138.914 50.2327C138.693 50.0518 138.392 49.9513 138.01 49.9513C137.689 49.9513 137.407 50.0116 137.166 50.1121C136.925 50.2126 136.603 50.4136 136.242 50.6949L136.02 49.8308C136.483 49.6097 136.885 49.469 137.226 49.3886C137.568 49.3082 137.95 49.268 138.392 49.268C139.095 49.268 139.638 49.4087 140.02 49.67C140.402 49.9513 140.603 50.3332 140.603 50.8356V54.8752C140.603 55.257 140.743 55.458 141.005 55.458C141.105 55.458 141.266 55.3977 141.447 55.257V56.0006C141.085 56.2217 140.763 56.3423 140.442 56.3423C140.1 56.3423 139.859 56.2619 139.698 56.1212C139.517 55.9604 139.377 55.6992 139.296 55.3173ZM139.256 52.1821C139.095 52.2826 138.955 52.3429 138.874 52.3831C138.794 52.4233 138.452 52.5439 137.869 52.765C137.407 52.9458 137.086 53.1468 136.905 53.4081C136.724 53.6694 136.623 53.9507 136.623 54.2723C136.623 54.634 136.724 54.9154 136.925 55.1365C137.126 55.3575 137.387 55.458 137.729 55.458C138.251 55.458 138.653 55.2369 138.955 54.8149C139.136 54.5335 139.236 54.2522 139.236 53.9306V52.1821H139.256ZM142.572 50.0518H141.547V49.4288H142.572V48.1225L143.939 47.9818C143.919 48.223 143.919 48.4039 143.919 48.4842V49.4489H144.984V50.0719H143.919V54.9958C143.919 55.3977 144.079 55.5987 144.421 55.5987C144.582 55.5987 144.783 55.5384 145.024 55.3977V56.1011C144.662 56.282 144.28 56.3624 143.879 56.3624C143.436 56.3624 143.115 56.2619 142.894 56.0408C142.693 55.8198 142.572 55.4982 142.572 55.036V50.0518ZM151.435 55.7796C150.993 56.0006 150.611 56.1413 150.269 56.2217C149.928 56.3021 149.546 56.3423 149.104 56.3423C147.938 56.3423 147.074 56.0006 146.471 55.3173C145.928 54.7144 145.667 53.8904 145.667 52.8454C145.667 51.6998 145.969 50.7954 146.592 50.1523C147.154 49.5494 147.898 49.268 148.843 49.268C149.747 49.268 150.45 49.5494 150.953 50.1322C151.455 50.6949 151.737 51.5189 151.777 52.5841H147.074C147.074 53.3277 147.154 53.9306 147.315 54.3728C147.637 55.257 148.3 55.6992 149.305 55.6992C149.988 55.6992 150.651 55.4379 151.254 54.9154L151.435 55.7796ZM147.094 51.9812H150.35C150.31 51.5993 150.269 51.2778 150.189 51.0366C150.068 50.6748 149.888 50.3734 149.606 50.1523C149.385 49.9714 149.104 49.871 148.782 49.871C148.32 49.871 147.938 50.0518 147.657 50.4136C147.335 50.8155 147.154 51.318 147.094 51.9812ZM161.082 56.2217H156.66C156.701 56.1011 156.721 55.9604 156.721 55.8198V47.9617C156.721 47.8009 156.701 47.6603 156.66 47.5397H158.228C158.188 47.6603 158.168 47.821 158.168 47.9617V55.5384H160.64C160.821 55.5384 160.981 55.5183 161.082 55.4781V56.2217ZM162.75 47.6C163.011 47.6 163.212 47.6603 163.353 47.7607C163.493 47.8612 163.574 48.022 163.574 48.2029C163.574 48.4039 163.493 48.5445 163.353 48.6651C163.212 48.7857 163.011 48.8259 162.75 48.8259C162.187 48.8259 161.906 48.6249 161.906 48.2029C161.906 48.022 161.986 47.8612 162.127 47.7607C162.308 47.6603 162.509 47.6 162.75 47.6ZM162.026 49.4288H163.473C163.433 49.5695 163.433 49.7102 163.433 49.8509V55.7997C163.433 55.9403 163.453 56.081 163.473 56.2217H162.026C162.067 56.1011 162.067 55.9604 162.067 55.7997V49.8509C162.067 49.6901 162.046 49.5494 162.026 49.4288ZM166.548 50.2126C167.051 49.5896 167.694 49.268 168.498 49.268C168.94 49.268 169.322 49.3484 169.603 49.4891C169.884 49.6298 170.146 49.871 170.327 50.2126C170.648 49.871 170.97 49.6298 171.271 49.4891C171.573 49.3484 171.954 49.268 172.376 49.268C173.683 49.268 174.326 49.9112 174.326 51.1773V55.7997C174.326 55.9403 174.346 56.081 174.366 56.2217H172.919C172.959 56.081 172.959 55.9403 172.959 55.7997V51.3984C172.959 51.0366 172.899 50.7753 172.778 50.5945C172.598 50.3332 172.276 50.2126 171.814 50.2126C171.372 50.2126 171.03 50.3332 170.769 50.5543C170.528 50.7753 170.407 51.117 170.407 51.539V55.7796C170.407 55.9403 170.427 56.081 170.447 56.2016H169C169.04 56.081 169.04 55.9403 169.04 55.7796V51.3783C169.04 51.0165 168.98 50.7552 168.839 50.5945C168.638 50.3332 168.317 50.2126 167.895 50.2126C167.473 50.2126 167.131 50.3332 166.87 50.5543C166.609 50.7753 166.488 51.0768 166.488 51.4385V55.7997C166.488 55.9403 166.508 56.081 166.528 56.2217H165.081C165.121 56.081 165.121 55.9403 165.121 55.7997V49.8308C165.121 49.67 165.101 49.5293 165.081 49.4087H166.448V50.2126H166.548ZM176.798 47.6C177.059 47.6 177.26 47.6603 177.401 47.7607C177.542 47.8612 177.622 48.022 177.622 48.2029C177.622 48.4039 177.542 48.5445 177.401 48.6651C177.26 48.7857 177.059 48.8259 176.798 48.8259C176.235 48.8259 175.954 48.6249 175.954 48.2029C175.954 48.022 176.034 47.8612 176.175 47.7607C176.336 47.6603 176.537 47.6 176.798 47.6ZM176.054 49.4288H177.501C177.461 49.5695 177.461 49.7102 177.461 49.8509V55.7997C177.461 55.9403 177.481 56.081 177.501 56.2217H176.054C176.094 56.1011 176.094 55.9604 176.094 55.7997V49.8509C176.115 49.6901 176.094 49.5494 176.054 49.4288ZM179.491 50.0518H178.466V49.4288H179.491V48.1225L180.858 47.9818C180.837 48.223 180.837 48.4039 180.837 48.4842V49.4489H181.903V50.0719H180.837V54.9958C180.837 55.3977 180.998 55.5987 181.34 55.5987C181.501 55.5987 181.702 55.5384 181.943 55.3977V56.1011C181.581 56.282 181.199 56.3624 180.797 56.3624C180.355 56.3624 180.034 56.2619 179.812 56.0408C179.612 55.8198 179.491 55.4982 179.491 55.036V50.0518ZM188.334 55.7796C187.892 56.0006 187.51 56.1413 187.168 56.2217C186.826 56.3021 186.445 56.3423 186.002 56.3423C184.837 56.3423 183.973 56.0006 183.37 55.3173C182.827 54.7144 182.566 53.8904 182.566 52.8454C182.566 51.6998 182.867 50.7954 183.49 50.1523C184.053 49.5494 184.797 49.268 185.741 49.268C186.646 49.268 187.349 49.5494 187.851 50.1322C188.354 50.6949 188.635 51.5189 188.675 52.5841H183.973C183.973 53.3277 184.053 53.9306 184.214 54.3728C184.535 55.257 185.199 55.6992 186.203 55.6992C186.887 55.6992 187.55 55.4379 188.153 54.9154L188.334 55.7796ZM183.993 51.9812H187.249C187.208 51.5993 187.168 51.2778 187.088 51.0366C186.967 50.6748 186.786 50.3734 186.505 50.1523C186.284 49.9714 186.002 49.871 185.681 49.871C185.219 49.871 184.837 50.0518 184.555 50.4136C184.234 50.8155 184.053 51.318 183.993 51.9812ZM194.061 55.2369C193.84 55.5585 193.619 55.7796 193.438 55.9202C193.077 56.2016 192.614 56.3423 192.072 56.3423C191.268 56.3423 190.665 56.0207 190.243 55.3776C189.801 54.7144 189.6 53.8703 189.6 52.8052C189.6 51.7199 189.841 50.8356 190.323 50.1724C190.766 49.5695 191.409 49.268 192.233 49.268C192.635 49.268 192.976 49.3283 193.258 49.469C193.539 49.6097 193.8 49.8308 194.021 50.1523V47.2583C194.021 47.0975 194.001 46.9568 193.981 46.8363H195.428C195.388 46.9769 195.388 47.1176 195.388 47.2583V55.7997C195.388 55.9403 195.408 56.081 195.428 56.2217H194.082V55.2369H194.061ZM192.574 49.9915C192.213 49.9915 191.891 50.1121 191.63 50.3734C191.188 50.8155 190.966 51.6194 190.966 52.8052C190.966 54.5938 191.469 55.4982 192.494 55.4982C193.016 55.4982 193.418 55.257 193.7 54.7948C193.981 54.3125 194.102 53.6292 194.102 52.7047C194.102 50.916 193.599 50.0116 192.574 49.9915Z" fill="#1A1A18"/>
<path fill-rule="evenodd" clip-rule="evenodd" d="M187.61 24.7091H185.359V22.3578H187.61V19.6647L192.956 19.0819C192.876 19.6044 192.836 20.0064 192.836 20.3078V22.3578H195.408V24.7091H192.836V36.5866C192.836 37.491 193.217 37.9332 193.961 37.9332C194.403 37.9332 194.885 37.7724 195.408 37.4307V39.9228C194.222 40.4453 193.016 40.7066 191.811 40.7066C190.384 40.7066 189.339 40.4051 188.655 39.8022C187.972 39.1993 187.61 38.2748 187.61 37.0489V24.7091ZM148.802 22.3778H154.008V24.3876C154.59 23.644 155.153 23.1014 155.696 22.7999C156.701 22.2171 157.886 21.9156 159.233 21.9156C161.142 21.9156 162.569 22.4984 163.554 23.6641C164.197 24.4278 164.518 25.5331 164.518 26.9801V39.3199C164.518 39.7017 164.579 40.0635 164.699 40.4051H159.112C159.213 40.1439 159.273 39.7821 159.293 39.3199V28.0051C159.293 26.337 158.529 25.513 157.002 25.513C156.138 25.513 155.434 25.7743 154.952 26.3169C154.45 26.8595 154.209 27.6031 154.209 28.5477V39.3199C154.229 39.762 154.289 40.1238 154.389 40.4051H148.802C148.903 40.1238 148.963 39.762 148.983 39.3199V23.4832C148.983 23.021 148.923 22.6592 148.802 22.3778ZM183.691 39.1792C182.445 39.7821 181.36 40.1841 180.436 40.4051C179.511 40.6262 178.426 40.7267 177.16 40.7267C174.024 40.7267 171.613 39.8625 169.945 38.114C168.417 36.5264 167.654 34.3357 167.654 31.5623C167.654 28.4673 168.498 26.0356 170.166 24.2871C171.713 22.6793 173.803 21.8754 176.436 21.8754C179.933 21.8754 182.305 23.2822 183.591 26.0958C184.194 27.4022 184.515 29.1506 184.535 31.3211H173.08C173.1 33.0696 173.301 34.4563 173.663 35.4612C174.386 37.4307 175.853 38.4155 178.064 38.4155C179.792 38.4155 181.481 37.6719 183.129 36.1847L183.691 39.1792ZM173.18 28.9698H179.029C178.968 27.9448 178.868 27.1409 178.747 26.5782C178.566 25.8346 178.225 25.2518 177.763 24.8096C177.3 24.3675 176.778 24.1464 176.175 24.1464C175.311 24.1464 174.607 24.5685 174.085 25.3924C173.562 26.2164 173.261 27.4223 173.18 28.9698Z" fill="#EF8200"/>
<path fill-rule="evenodd" clip-rule="evenodd" d="M130.011 33.9941L133.307 23.4229C133.388 23.1415 133.428 22.9004 133.428 22.6994C133.428 22.6391 133.408 22.5386 133.388 22.3778H138.452C138.412 22.5386 138.392 22.6592 138.392 22.7195C138.392 22.9205 138.432 23.1616 138.512 23.4229L141.447 33.9941L144.642 23.4229C144.723 23.1817 144.763 23.0009 144.763 22.8602C144.763 22.7597 144.743 22.5989 144.702 22.3778H147.516C147.335 22.6592 147.174 23.0009 147.034 23.4229L142.331 39.3601C142.251 39.6414 142.21 39.8826 142.21 40.0635C142.21 40.1238 142.23 40.2444 142.271 40.385H137.508C137.528 40.2042 137.548 40.0836 137.548 40.0233C137.548 39.8424 137.508 39.6213 137.427 39.3601L134.332 28.1659L130.896 39.3601C130.795 39.7419 130.735 40.0836 130.715 40.385H126.233C126.253 40.2845 126.253 40.2243 126.253 40.1841C126.253 39.9831 126.193 39.7017 126.092 39.34L121.55 23.4028C121.43 23.0009 121.269 22.6592 121.088 22.3778H127.017C126.977 22.5587 126.957 22.6793 126.957 22.7396C126.957 22.9205 126.997 23.1415 127.077 23.4229L130.011 33.9941ZM88.4099 18.8608V22.5587C86.5007 21.0514 84.5311 20.3078 82.5013 20.3078C80.5318 20.3078 78.9642 20.9911 77.7985 22.3578C77.0951 23.1817 76.5927 24.1665 76.2711 25.3121C75.9496 26.4576 75.7888 27.8845 75.7888 29.5325C75.7888 32.4868 76.3314 34.7377 77.4368 36.2852C77.899 36.9283 78.4818 37.4307 79.2054 37.7925C79.9289 38.1542 80.6926 38.3351 81.4964 38.3351C82.3003 38.3351 83.0439 38.114 83.7473 37.6518V29.231C83.7272 28.7688 83.667 28.407 83.5665 28.1458H89.2741C89.1736 28.4472 89.1133 28.809 89.0932 29.231V37.7523C89.1133 38.3351 89.1736 38.8375 89.3143 39.2395C87.2644 39.8826 85.7169 40.3046 84.7321 40.4855C83.7473 40.6664 82.5214 40.7669 81.0744 40.7669C78.7431 40.7669 76.8339 40.4051 75.3467 39.6615C73.4575 38.717 72.0507 37.3101 71.1262 35.4612C70.2822 33.773 69.8601 31.7834 69.8601 29.4722C69.8601 25.513 71.1061 22.4783 73.5982 20.348C75.6481 18.5795 78.3814 17.7153 81.818 17.7153C83.9483 17.6751 86.1389 18.077 88.4099 18.8608ZM92.5902 22.3778H97.8355V24.267C98.338 22.7597 99.8051 21.9558 102.197 21.8955V25.7341C101.835 25.6939 101.554 25.6738 101.332 25.6738C99.1017 25.6738 97.9963 26.8595 97.9963 29.2109V39.3199C98.0164 39.762 98.0767 40.1238 98.1772 40.4051H92.5902C92.7107 40.1037 92.771 39.7419 92.771 39.3199V23.4832C92.771 23.021 92.7107 22.6592 92.5902 22.3778ZM112.024 21.8955C114.717 21.8955 116.807 22.7195 118.295 24.3876C119.822 26.0958 120.606 28.407 120.606 31.3412C120.606 34.4161 119.742 36.8278 117.993 38.5562C116.546 40.0032 114.557 40.7267 112.044 40.7267C109.512 40.7267 107.502 39.9831 106.035 38.4959C104.307 36.7273 103.443 34.2755 103.443 31.1403C103.443 28.3066 104.226 26.0557 105.794 24.3474C106.558 23.5234 107.442 22.9004 108.427 22.5185C109.432 22.1166 110.617 21.9156 112.024 21.8955ZM112.024 24.1062C111.562 24.1062 111.12 24.2469 110.698 24.5685C110.276 24.8699 109.954 25.2719 109.753 25.7542C109.191 27.0806 108.909 28.9296 108.909 31.2609C108.909 33.6524 109.191 35.5215 109.773 36.8881C109.974 37.3704 110.296 37.7724 110.718 38.0738C111.14 38.3753 111.582 38.516 112.044 38.516C112.486 38.516 112.929 38.3753 113.351 38.0537C113.773 37.7523 114.074 37.3503 114.295 36.868C114.878 35.5215 115.159 33.6524 115.159 31.3011C115.159 28.8894 114.878 27.0404 114.295 25.7341C114.094 25.2518 113.773 24.8699 113.371 24.5685C112.949 24.267 112.486 24.1263 112.024 24.1062Z" fill="#009B35"/>
<path fill-rule="evenodd" clip-rule="evenodd" d="M17.7478 21.2323C16.5621 23.9052 15.8989 26.8796 15.8989 29.9746C15.8989 32.3662 16.3008 34.6774 17.0243 36.8278C17.4866 38.3351 18.0895 39.762 18.8331 41.1286C10.0305 34.0745 7.25705 24.0861 10.3319 15.4443L16.6827 19.1422L17.165 5.71718C17.5067 5.41572 17.8684 5.13436 18.2302 4.853C28.0779 -2.74378 43.191 -1.71882 53.3402 10.0381C49.5619 7.70682 45.1003 6.3603 40.3171 6.3603C30.0876 6.3603 21.3453 12.5101 17.7478 21.2323Z" fill="url(#paint0_linear_137_2480)"/>
<path opacity="0.5" fill-rule="evenodd" clip-rule="evenodd" d="M17.7478 21.2323C16.8434 23.2621 16.2405 25.4326 16.0194 27.7237C16.3812 14.0375 27.8969 3.04424 42.0253 3.04424C42.8895 3.04424 43.7336 3.08444 44.5777 3.16483C47.8535 4.8329 50.8279 7.16419 53.32 10.0381C49.5618 7.70682 45.1002 6.3603 40.317 6.3603C30.0875 6.3603 21.3452 12.5101 17.7478 21.2323Z" fill="url(#paint1_linear_137_2480)"/>
<path fill-rule="evenodd" clip-rule="evenodd" d="M40.6789 30.1153H61.6403C60.0125 46.776 48.6575 60 30.9116 60C12.9044 60 -0.621106 45.128 0.0220078 27.4223C0.243078 21.4132 2.17242 15.5046 6.0512 10.8822L9.82949 13.0728C8.12122 16.2281 7.13645 19.8456 7.13645 23.6842C7.13645 40.4453 26.5705 52.0415 40.096 42.9374C41.7038 41.7717 43.2111 40.2042 44.5978 38.2547H40.6989V30.1153H40.6789Z" fill="url(#paint2_linear_137_2480)"/>
<path opacity="0.5" fill-rule="evenodd" clip-rule="evenodd" d="M7.37758 11.666L9.82945 13.0929C3.92085 23.9454 8.10109 37.0489 18.7929 43.1585C7.13642 38.0939 1.24791 24.0057 7.37758 11.666Z" fill="url(#paint3_linear_137_2480)"/>
<path opacity="0.5" fill-rule="evenodd" clip-rule="evenodd" d="M57.5204 30.1153H61.6604C60.0326 46.776 48.6776 60 30.9317 60C23.2746 60 16.2807 57.2266 10.8947 52.6444C15.6979 56.0006 21.5462 57.9501 27.8568 57.9501C43.6332 57.9501 56.5557 45.6505 57.5204 30.1153Z" fill="url(#paint4_linear_137_2480)"/>
<path fill-rule="evenodd" clip-rule="evenodd" d="M61.6604 2.40113V9.17392V28.2664H54.9077V9.17392V6.11913C54.9077 1.8786 59.0277 2.40113 61.6604 2.40113Z" fill="#36A834"/>
<mask id="mask0_137_2480" style="mask-type:luminance" maskUnits="userSpaceOnUse" x="54" y="2" width="8" height="27">
<path d="M61.6604 2.40113V9.17392V28.2664H54.9077V9.17392V6.11913C54.9077 1.8786 59.0277 2.40113 61.6604 2.40113Z" fill="white"/>
</mask>
<g mask="url(#mask0_137_2480)">
<path opacity="0.2" d="M61.6403 2.40113H57.5605V29.3114H61.6403V2.40113Z" fill="#36A834"/>
</g>
<path fill-rule="evenodd" clip-rule="evenodd" d="M53.5411 10.8219C53.5411 16.9918 53.5411 22.1166 53.5411 28.2865H47.2708V14.2786C47.2708 12.3895 48.7178 10.8219 50.4662 10.8219H53.5411Z" fill="#006C27"/>
<mask id="mask1_137_2480" style="mask-type:luminance" maskUnits="userSpaceOnUse" x="47" y="10" width="7" height="19">
<path d="M53.5411 10.8219C53.5411 16.9918 53.5411 22.1166 53.5411 28.2865H47.2708V14.2786C47.2708 12.3895 48.7178 10.8219 50.4662 10.8219H53.5411Z" fill="white"/>
</mask>
<g mask="url(#mask1_137_2480)">
<path opacity="0.2" d="M53.521 4.29028H49.7227V29.3315H53.521V4.29028Z" fill="#006C27"/>
</g>
<path fill-rule="evenodd" clip-rule="evenodd" d="M40.6788 22.619V28.2664H45.8639C45.8639 24.9905 45.8639 22.7396 45.8639 19.4637H43.3116C41.8646 19.4637 40.6788 20.75 40.6788 22.3176V22.619Z" fill="#004315"/>
<mask id="mask2_137_2480" style="mask-type:luminance" maskUnits="userSpaceOnUse" x="40" y="19" width="6" height="10">
<path d="M40.6788 22.619V28.2664H45.8639C45.8639 24.9905 45.8639 22.7396 45.8639 19.4637H43.3116C41.8646 19.4637 40.6788 20.75 40.6788 22.3176V22.619Z" fill="white"/>
</mask>
<g mask="url(#mask2_137_2480)">
<path opacity="0.2" d="M45.884 8.6112H42.7288V29.3315H45.884V8.6112Z" fill="#004315"/>
</g>
<path fill-rule="evenodd" clip-rule="evenodd" d="M15.5171 1.07471L1.00684 7.94799L14.9946 16.0874L15.5171 1.07471Z" fill="#47A337"/>
<defs>
<linearGradient id="paint0_linear_137_2480" x1="60.2096" y1="20.5672" x2="-11.5083" y2="20.5672" gradientUnits="userSpaceOnUse">
<stop stop-color="#EB6801"/>
<stop offset="1" stop-color="#FFCB00"/>
</linearGradient>
<linearGradient id="paint1_linear_137_2480" x1="59.1341" y1="15.3878" x2="15.8991" y2="15.3878" gradientUnits="userSpaceOnUse">
<stop stop-color="#EE7C00"/>
<stop offset="1" stop-color="#F6A500"/>
</linearGradient>
<linearGradient id="paint2_linear_137_2480" x1="-7.1705" y1="35.4477" x2="59.3217" y2="35.4477" gradientUnits="userSpaceOnUse">
<stop stop-color="#47AB32"/>
<stop offset="1" stop-color="#006227"/>
</linearGradient>
<linearGradient id="paint3_linear_137_2480" x1="2.46235" y1="27.4075" x2="18.2496" y2="27.4075" gradientUnits="userSpaceOnUse">
<stop stop-color="#47AB32"/>
<stop offset="1" stop-color="#006227"/>
</linearGradient>
<linearGradient id="paint4_linear_137_2480" x1="4.82247" y1="45.0604" x2="59.7289" y2="45.0604" gradientUnits="userSpaceOnUse">
<stop stop-color="#47AB32"/>
<stop offset="1" stop-color="#006227"/>
</linearGradient>
</defs>
</svg>
